<mxfile host="app.diagrams.net" modified="2023-12-31T13:20:07.801Z" agent="Mozilla/5.0 (Windows NT 10.0; Win64; x64) AppleWebKit/537.36 (KHTML, like Gecko) Chrome/120.0.0.0 Safari/537.36 Edg/120.0.0.0" etag="W_IBWpohwHodjlHCtdEO" version="22.1.16" type="github">
  <diagram id="C5RBs43oDa-KdzZeNtuy" name="Page-1">
    <mxGraphModel dx="1516" dy="831" grid="1" gridSize="10" guides="1" tooltips="1" connect="1" arrows="1" fold="1" page="1" pageScale="1" pageWidth="1600" pageHeight="900" math="0" shadow="0">
      <root>
        <mxCell id="WIyWlLk6GJQsqaUBKTNV-0" />
        <mxCell id="WIyWlLk6GJQsqaUBKTNV-1" parent="WIyWlLk6GJQsqaUBKTNV-0" />
        <mxCell id="WIyWlLk6GJQsqaUBKTNV-2" value="" style="rounded=0;html=1;jettySize=auto;orthogonalLoop=1;fontSize=11;endArrow=block;endFill=0;endSize=8;strokeWidth=1;shadow=0;labelBackgroundColor=none;edgeStyle=orthogonalEdgeStyle;entryX=0.5;entryY=0;entryDx=0;entryDy=0;" parent="WIyWlLk6GJQsqaUBKTNV-1" source="WIyWlLk6GJQsqaUBKTNV-3" edge="1">
          <mxGeometry relative="1" as="geometry">
            <mxPoint x="660" y="120" as="targetPoint" />
          </mxGeometry>
        </mxCell>
        <mxCell id="WIyWlLk6GJQsqaUBKTNV-3" value="开始" style="rounded=1;whiteSpace=wrap;html=1;fontSize=12;glass=0;strokeWidth=1;shadow=0;fontStyle=1" parent="WIyWlLk6GJQsqaUBKTNV-1" vertex="1">
          <mxGeometry x="600" y="30" width="120" height="40" as="geometry" />
        </mxCell>
        <mxCell id="OoD9IaqqbN23y8k7ahlz-3" value="" style="edgeStyle=orthogonalEdgeStyle;rounded=0;orthogonalLoop=1;jettySize=auto;html=1;" edge="1" parent="WIyWlLk6GJQsqaUBKTNV-1" target="OoD9IaqqbN23y8k7ahlz-2">
          <mxGeometry relative="1" as="geometry">
            <mxPoint x="730" y="150" as="sourcePoint" />
          </mxGeometry>
        </mxCell>
        <mxCell id="OoD9IaqqbN23y8k7ahlz-5" value="" style="edgeStyle=orthogonalEdgeStyle;rounded=0;orthogonalLoop=1;jettySize=auto;html=1;" edge="1" parent="WIyWlLk6GJQsqaUBKTNV-1" target="OoD9IaqqbN23y8k7ahlz-4">
          <mxGeometry relative="1" as="geometry">
            <mxPoint x="590" y="150" as="sourcePoint" />
          </mxGeometry>
        </mxCell>
        <mxCell id="OoD9IaqqbN23y8k7ahlz-8" value="" style="edgeStyle=orthogonalEdgeStyle;rounded=0;orthogonalLoop=1;jettySize=auto;html=1;" edge="1" parent="WIyWlLk6GJQsqaUBKTNV-1" source="OoD9IaqqbN23y8k7ahlz-2" target="OoD9IaqqbN23y8k7ahlz-7">
          <mxGeometry relative="1" as="geometry" />
        </mxCell>
        <mxCell id="OoD9IaqqbN23y8k7ahlz-39" style="edgeStyle=orthogonalEdgeStyle;rounded=0;orthogonalLoop=1;jettySize=auto;html=1;exitX=0.5;exitY=1;exitDx=0;exitDy=0;entryX=1;entryY=0.5;entryDx=0;entryDy=0;" edge="1" parent="WIyWlLk6GJQsqaUBKTNV-1" source="OoD9IaqqbN23y8k7ahlz-2" target="OoD9IaqqbN23y8k7ahlz-29">
          <mxGeometry relative="1" as="geometry" />
        </mxCell>
        <mxCell id="OoD9IaqqbN23y8k7ahlz-2" value="输入注册信息" style="shape=parallelogram;perimeter=parallelogramPerimeter;whiteSpace=wrap;html=1;fixedSize=1;" vertex="1" parent="WIyWlLk6GJQsqaUBKTNV-1">
          <mxGeometry x="840" y="120" width="150" height="60" as="geometry" />
        </mxCell>
        <mxCell id="OoD9IaqqbN23y8k7ahlz-20" value="" style="edgeStyle=orthogonalEdgeStyle;rounded=0;orthogonalLoop=1;jettySize=auto;html=1;" edge="1" parent="WIyWlLk6GJQsqaUBKTNV-1" source="OoD9IaqqbN23y8k7ahlz-4" target="OoD9IaqqbN23y8k7ahlz-19">
          <mxGeometry relative="1" as="geometry" />
        </mxCell>
        <mxCell id="OoD9IaqqbN23y8k7ahlz-4" value="登录获取用户信息来匹配" style="shape=parallelogram;perimeter=parallelogramPerimeter;whiteSpace=wrap;html=1;fixedSize=1;" vertex="1" parent="WIyWlLk6GJQsqaUBKTNV-1">
          <mxGeometry x="340" y="120" width="160" height="60" as="geometry" />
        </mxCell>
        <mxCell id="OoD9IaqqbN23y8k7ahlz-36" style="edgeStyle=orthogonalEdgeStyle;rounded=0;orthogonalLoop=1;jettySize=auto;html=1;exitX=1;exitY=0;exitDx=0;exitDy=0;entryX=0;entryY=0.5;entryDx=0;entryDy=0;" edge="1" parent="WIyWlLk6GJQsqaUBKTNV-1" source="OoD9IaqqbN23y8k7ahlz-6" target="OoD9IaqqbN23y8k7ahlz-29">
          <mxGeometry relative="1" as="geometry" />
        </mxCell>
        <mxCell id="OoD9IaqqbN23y8k7ahlz-6" value="处理输入数据跳转登录或注册" style="rounded=0;whiteSpace=wrap;html=1;direction=west;" vertex="1" parent="WIyWlLk6GJQsqaUBKTNV-1">
          <mxGeometry x="590" y="120" width="140" height="70" as="geometry" />
        </mxCell>
        <mxCell id="OoD9IaqqbN23y8k7ahlz-7" value="接受处理信息的文件和变量" style="whiteSpace=wrap;html=1;" vertex="1" parent="WIyWlLk6GJQsqaUBKTNV-1">
          <mxGeometry x="855" y="10" width="120" height="60" as="geometry" />
        </mxCell>
        <mxCell id="OoD9IaqqbN23y8k7ahlz-13" value="注册成功或失败" style="curved=1;endArrow=classic;html=1;rounded=0;exitX=0.5;exitY=1;exitDx=0;exitDy=0;" edge="1" parent="WIyWlLk6GJQsqaUBKTNV-1" source="OoD9IaqqbN23y8k7ahlz-2">
          <mxGeometry width="50" height="50" relative="1" as="geometry">
            <mxPoint x="905" y="170" as="sourcePoint" />
            <mxPoint x="660" y="190" as="targetPoint" />
            <Array as="points">
              <mxPoint x="820" y="210" />
              <mxPoint x="720" y="220" />
            </Array>
          </mxGeometry>
        </mxCell>
        <mxCell id="OoD9IaqqbN23y8k7ahlz-15" value="" style="curved=1;endArrow=classic;html=1;rounded=0;exitX=0.5;exitY=0;exitDx=0;exitDy=0;entryX=0.5;entryY=0;entryDx=0;entryDy=0;" edge="1" parent="WIyWlLk6GJQsqaUBKTNV-1" source="OoD9IaqqbN23y8k7ahlz-7" target="OoD9IaqqbN23y8k7ahlz-4">
          <mxGeometry width="50" height="50" relative="1" as="geometry">
            <mxPoint x="670" y="-10" as="sourcePoint" />
            <mxPoint x="720" y="-60" as="targetPoint" />
            <Array as="points">
              <mxPoint x="720" y="-10" />
              <mxPoint x="500" y="40" />
            </Array>
          </mxGeometry>
        </mxCell>
        <mxCell id="OoD9IaqqbN23y8k7ahlz-18" value="匹配失败" style="curved=1;endArrow=classic;html=1;rounded=0;entryX=0.5;entryY=0;entryDx=0;entryDy=0;" edge="1" parent="WIyWlLk6GJQsqaUBKTNV-1" target="OoD9IaqqbN23y8k7ahlz-6">
          <mxGeometry width="50" height="50" relative="1" as="geometry">
            <mxPoint x="411" y="181" as="sourcePoint" />
            <mxPoint x="540" y="260" as="targetPoint" />
            <Array as="points">
              <mxPoint x="520" y="220" />
            </Array>
          </mxGeometry>
        </mxCell>
        <mxCell id="OoD9IaqqbN23y8k7ahlz-21" style="edgeStyle=orthogonalEdgeStyle;rounded=0;orthogonalLoop=1;jettySize=auto;html=1;entryX=1;entryY=0.5;entryDx=0;entryDy=0;" edge="1" parent="WIyWlLk6GJQsqaUBKTNV-1" source="OoD9IaqqbN23y8k7ahlz-19" target="OoD9IaqqbN23y8k7ahlz-7">
          <mxGeometry relative="1" as="geometry">
            <mxPoint x="1110" y="50" as="targetPoint" />
            <Array as="points">
              <mxPoint x="1070" y="290" />
              <mxPoint x="1070" y="40" />
            </Array>
          </mxGeometry>
        </mxCell>
        <mxCell id="OoD9IaqqbN23y8k7ahlz-22" value="提取信息" style="edgeLabel;html=1;align=center;verticalAlign=middle;resizable=0;points=[];" vertex="1" connectable="0" parent="OoD9IaqqbN23y8k7ahlz-21">
          <mxGeometry x="-0.3578" y="1" relative="1" as="geometry">
            <mxPoint as="offset" />
          </mxGeometry>
        </mxCell>
        <mxCell id="OoD9IaqqbN23y8k7ahlz-23" style="edgeStyle=orthogonalEdgeStyle;rounded=0;orthogonalLoop=1;jettySize=auto;html=1;entryX=0.5;entryY=0;entryDx=0;entryDy=0;" edge="1" parent="WIyWlLk6GJQsqaUBKTNV-1" source="OoD9IaqqbN23y8k7ahlz-19" target="OoD9IaqqbN23y8k7ahlz-6">
          <mxGeometry relative="1" as="geometry">
            <mxPoint x="660" y="200" as="targetPoint" />
          </mxGeometry>
        </mxCell>
        <mxCell id="OoD9IaqqbN23y8k7ahlz-25" value="返回" style="edgeLabel;html=1;align=center;verticalAlign=middle;resizable=0;points=[];" vertex="1" connectable="0" parent="OoD9IaqqbN23y8k7ahlz-23">
          <mxGeometry x="0.6285" relative="1" as="geometry">
            <mxPoint as="offset" />
          </mxGeometry>
        </mxCell>
        <mxCell id="OoD9IaqqbN23y8k7ahlz-38" style="edgeStyle=orthogonalEdgeStyle;rounded=0;orthogonalLoop=1;jettySize=auto;html=1;exitX=0;exitY=1;exitDx=0;exitDy=0;entryX=0;entryY=0.75;entryDx=0;entryDy=0;" edge="1" parent="WIyWlLk6GJQsqaUBKTNV-1" source="OoD9IaqqbN23y8k7ahlz-19" target="OoD9IaqqbN23y8k7ahlz-29">
          <mxGeometry relative="1" as="geometry" />
        </mxCell>
        <mxCell id="OoD9IaqqbN23y8k7ahlz-19" value="处理用户登录选项" style="whiteSpace=wrap;html=1;" vertex="1" parent="WIyWlLk6GJQsqaUBKTNV-1">
          <mxGeometry x="360" y="260" width="120" height="60" as="geometry" />
        </mxCell>
        <mxCell id="OoD9IaqqbN23y8k7ahlz-29" value="退出" style="rounded=1;whiteSpace=wrap;html=1;" vertex="1" parent="WIyWlLk6GJQsqaUBKTNV-1">
          <mxGeometry x="600" y="390" width="120" height="60" as="geometry" />
        </mxCell>
      </root>
    </mxGraphModel>
  </diagram>
</mxfile>
